<?xml version="1.0" encoding="UTF-8" standalone="no"?>
<!-- Created with Inkscape (http://www.inkscape.org/) -->

<svg
   xmlns:dc="http://purl.org/dc/elements/1.1/"
   xmlns:cc="http://creativecommons.org/ns#"
   xmlns:rdf="http://www.w3.org/1999/02/22-rdf-syntax-ns#"
   xmlns:svg="http://www.w3.org/2000/svg"
   xmlns="http://www.w3.org/2000/svg"
   xmlns:sodipodi="http://sodipodi.sourceforge.net/DTD/sodipodi-0.dtd"
   xmlns:inkscape="http://www.inkscape.org/namespaces/inkscape"
   width="965.94922"
   height="124.03426"
   id="svg4337"
   version="1.1"
   inkscape:version="0.48.4 r9939"
   sodipodi:docname="diveboard_full.svg">
  <defs
     id="defs4339" />
  <sodipodi:namedview
     id="base"
     pagecolor="#ffffff"
     bordercolor="#666666"
     borderopacity="1.0"
     inkscape:pageopacity="0.0"
     inkscape:pageshadow="2"
     inkscape:zoom="0.7"
     inkscape:cx="308.69088"
     inkscape:cy="-22.442405"
     inkscape:document-units="px"
     inkscape:current-layer="layer1"
     showgrid="false"
     inkscape:window-width="1317"
     inkscape:window-height="744"
     inkscape:window-x="49"
     inkscape:window-y="24"
     inkscape:window-maximized="1"
     inkscape:snap-grids="true"
     inkscape:snap-to-guides="true"
     inkscape:snap-page="true"
     width="1051.3622px"
     fit-margin-top="0"
     fit-margin-left="0"
     fit-margin-right="0"
     fit-margin-bottom="0" />
  <metadata
     id="metadata4342">
    <rdf:RDF>
      <cc:Work
         rdf:about="">
        <dc:format>image/svg+xml</dc:format>
        <dc:type
           rdf:resource="http://purl.org/dc/dcmitype/StillImage" />
        <dc:title></dc:title>
      </cc:Work>
    </rdf:RDF>
  </metadata>
  <g
     inkscape:label="Layer 1"
     inkscape:groupmode="layer"
     id="layer1"
     transform="translate(-19.999899,-323.24851)">
    <g
       transform="matrix(0.88254071,0,0,0.88254071,1057.7143,382.43663)"
       id="g3979">
      <g
         transform="matrix(3.0145052,0,0,3.0145052,-1207.4061,-90.43103)"
         id="g3114">
        <path
           id="path3116"
           d="m 231.219,21.085 c 0.353,1.172 -0.186,2.375 -1.21,2.685 l -11.068,3.35 c -1.023,0.311 -2.144,-0.39 -2.496,-1.563 l 0,0 c -0.357,-1.173 0.185,-2.376 1.208,-2.687 l 11.068,-3.349 c 1.026,-0.311 2.141,0.39 2.498,1.564 l 0,0 z"
           inkscape:connector-curvature="0"
           style="fill:#464b52" />
        <path
           id="path3118"
           d="M 216.019,24.64"
           stroke-miterlimit="10"
           inkscape:connector-curvature="0"
           style="fill:none;stroke:#ed1e3e;stroke-miterlimit:10" />
        <path
           id="path3120"
           d="m 216.261,24.697 -0.849,0.257 c -0.416,0.125 -0.633,0.611 -0.489,1.085 0.143,0.475 0.595,0.757 1.006,0.63 l 0.855,-0.259 c -0.184,-0.232 -0.332,-0.505 -0.423,-0.814 -0.091,-0.301 -0.122,-0.607 -0.1,-0.899 z"
           inkscape:connector-curvature="0"
           style="fill:#464b52" />
        <g
           id="g3122">
          <path
             id="path3124"
             d="m 216.983,30.682 c 0.013,-0.034 0.041,-0.055 0.078,-0.045 l 0,0 c 0.032,0.013 0.047,0.047 0.043,0.078 l -0.186,0.597 c -0.012,0.035 -0.051,0.052 -0.079,0.038 l 0,0 c -0.036,-0.007 -0.054,-0.044 -0.043,-0.074 l 0.187,-0.594 z"
             inkscape:connector-curvature="0"
             style="fill:#464b52" />
          <path
             id="path3126"
             d="m 216.574,30.516 c 0.013,-0.035 0.047,-0.051 0.083,-0.037 l 0,0 c 0.029,0.016 0.044,0.052 0.033,0.083 l -0.252,0.57 c -0.015,0.032 -0.058,0.047 -0.082,0.03 l 0,0 c -0.032,-0.011 -0.047,-0.049 -0.03,-0.08 l 0.248,-0.566 z"
             inkscape:connector-curvature="0"
             style="fill:#464b52" />
          <path
             id="path3128"
             d="m 216.179,30.308 c 0.016,-0.033 0.054,-0.044 0.084,-0.027 l 0,0 c 0.031,0.018 0.039,0.056 0.026,0.085 l -0.308,0.542 c -0.02,0.031 -0.062,0.041 -0.087,0.02 l 0,0 c -0.033,-0.014 -0.044,-0.052 -0.024,-0.08 l 0.309,-0.54 z"
             inkscape:connector-curvature="0"
             style="fill:#464b52" />
          <path
             id="path3130"
             d="m 215.812,30.062 c 0.018,-0.029 0.055,-0.038 0.085,-0.016 l 0,0 c 0.026,0.02 0.031,0.058 0.017,0.087 l -0.363,0.506 c -0.022,0.03 -0.062,0.035 -0.085,0.013 l 0,0 c -0.03,-0.019 -0.035,-0.058 -0.017,-0.084 l 0.363,-0.506 z"
             inkscape:connector-curvature="0"
             style="fill:#464b52" />
          <path
             id="path3132"
             d="m 215.471,29.786 c 0.022,-0.029 0.059,-0.032 0.086,-0.009 l 0,0 c 0.028,0.022 0.028,0.062 0.01,0.088 l -0.407,0.471 c -0.025,0.028 -0.069,0.028 -0.09,0.004 l 0,0 c -0.028,-0.021 -0.03,-0.062 -0.006,-0.085 l 0.407,-0.469 z"
             inkscape:connector-curvature="0"
             style="fill:#464b52" />
          <path
             id="path3134"
             d="m 215.161,29.481 c 0.024,-0.025 0.064,-0.024 0.089,0 l 0,0 c 0.023,0.026 0.022,0.065 0,0.09 l -0.449,0.43 c -0.028,0.026 -0.07,0.021 -0.09,-0.002 l 0,0 c -0.026,-0.024 -0.025,-0.064 0.002,-0.086 l 0.448,-0.432 z"
             inkscape:connector-curvature="0"
             style="fill:#464b52" />
          <path
             id="path3136"
             d="m 214.889,29.159 c 0.027,-0.024 0.064,-0.02 0.087,0.009 l 0,0 c 0.021,0.026 0.015,0.065 -0.008,0.088 l -0.488,0.387 c -0.029,0.021 -0.07,0.016 -0.087,-0.012 l 0,0 c -0.023,-0.024 -0.018,-0.065 0.009,-0.084 l 0.487,-0.388 z"
             inkscape:connector-curvature="0"
             style="fill:#464b52" />
          <path
             id="path3138"
             d="m 214.649,28.822 c 0.031,-0.021 0.069,-0.014 0.09,0.015 l 0,0 c 0.019,0.03 0.009,0.069 -0.018,0.088 l -0.52,0.342 c -0.033,0.019 -0.074,0.008 -0.09,-0.02 l 0,0 c -0.019,-0.03 -0.011,-0.067 0.019,-0.084 l 0.519,-0.341 z"
             inkscape:connector-curvature="0"
             style="fill:#464b52" />
          <path
             id="path3140"
             d="m 214.456,28.477 c 0.031,-0.019 0.065,-0.007 0.087,0.023 l 0,0 c 0.014,0.031 0,0.069 -0.029,0.085 l -0.55,0.292 c -0.033,0.016 -0.071,0.002 -0.084,-0.029 l 0,0 c -0.019,-0.029 -0.003,-0.067 0.024,-0.081 l 0.552,-0.29 z"
             inkscape:connector-curvature="0"
             style="fill:#464b52" />
          <path
             id="path3142"
             d="m 214.304,28.131 c 0.03,-0.015 0.069,0 0.081,0.033 l 0,0 c 0.013,0.033 -0.006,0.068 -0.034,0.082 l -0.579,0.232 c -0.033,0.013 -0.068,-0.004 -0.081,-0.035 l 0,0 c -0.012,-0.032 0.004,-0.068 0.034,-0.08 l 0.579,-0.232 z"
             inkscape:connector-curvature="0"
             style="fill:#464b52" />
          <path
             id="path3144"
             d="m 214.195,27.79 c 0.035,-0.01 0.067,0.01 0.079,0.044 l 0,0 c 0.009,0.034 -0.016,0.065 -0.045,0.076 l -0.602,0.167 c -0.035,0.01 -0.068,-0.013 -0.076,-0.044 l 0,0 c -0.008,-0.033 0.012,-0.067 0.041,-0.076 l 0.603,-0.167 z"
             inkscape:connector-curvature="0"
             style="fill:#464b52" />
          <path
             id="path3146"
             d="m 214.135,27.463 c 0.034,-0.007 0.064,0.018 0.073,0.052 l 0,0 c 0.003,0.035 -0.021,0.066 -0.056,0.071 l -0.614,0.09 c -0.038,0.004 -0.07,-0.021 -0.073,-0.055 l 0,0 c -0.007,-0.033 0.021,-0.065 0.053,-0.069 l 0.617,-0.089 z"
             inkscape:connector-curvature="0"
             style="fill:#464b52" />
          <path
             id="path3148"
             d="m 214.121,27.158 c 0.036,-0.002 0.063,0.026 0.066,0.062 l 0,0 c -0.002,0.035 -0.033,0.061 -0.066,0.062 l -0.622,-0.002 c -0.039,0 -0.065,-0.03 -0.063,-0.062 l 0,0 c 0,-0.036 0.029,-0.062 0.063,-0.062 l 0.622,0.002 z"
             inkscape:connector-curvature="0"
             style="fill:#464b52" />
          <path
             id="path3150"
             d="m 214.157,26.88 c 0.036,0.006 0.057,0.038 0.053,0.071 l 0,0 c -0.008,0.035 -0.043,0.055 -0.073,0.05 l -0.613,-0.107 c -0.037,-0.008 -0.059,-0.043 -0.051,-0.073 l 0,0 c 0.004,-0.035 0.039,-0.056 0.071,-0.05 l 0.613,0.109 z"
             inkscape:connector-curvature="0"
             style="fill:#464b52" />
          <path
             id="path3152"
             d="m 214.237,26.635 c 0.036,0.01 0.048,0.047 0.038,0.081 l 0,0 c -0.017,0.032 -0.049,0.045 -0.082,0.034 l -0.58,-0.225 c -0.035,-0.015 -0.049,-0.051 -0.038,-0.083 l 0,0 c 0.015,-0.033 0.05,-0.047 0.082,-0.035 l 0.58,0.228 z"
             inkscape:connector-curvature="0"
             style="fill:#464b52" />
          <path
             id="path3154"
             d="m 214.364,26.425 c 0.032,0.019 0.035,0.058 0.018,0.087 l 0,0 c -0.02,0.028 -0.06,0.034 -0.089,0.017 l -0.517,-0.349 c -0.029,-0.021 -0.037,-0.06 -0.019,-0.088 l 0,0 c 0.021,-0.028 0.059,-0.034 0.088,-0.016 l 0.519,0.349 z"
             inkscape:connector-curvature="0"
             style="fill:#464b52" />
          <path
             id="path3156"
             d="m 214.536,26.25 c 0.024,0.025 0.021,0.062 -0.007,0.087 l 0,0 c -0.024,0.024 -0.062,0.021 -0.087,-0.003 l -0.423,-0.458 c -0.026,-0.027 -0.02,-0.064 0.004,-0.088 l 0,0 c 0.025,-0.023 0.062,-0.021 0.085,0.002 l 0.428,0.46 z"
             inkscape:connector-curvature="0"
             style="fill:#464b52" />
          <path
             id="path3158"
             d="m 214.758,26.103 c 0.021,0.031 0.008,0.069 -0.021,0.087 l 0,0 c -0.033,0.017 -0.07,0.005 -0.087,-0.024 l -0.313,-0.54 c -0.018,-0.033 -0.007,-0.069 0.023,-0.087 l 0,0 c 0.03,-0.015 0.066,-0.004 0.083,0.024 l 0.315,0.54 z"
             inkscape:connector-curvature="0"
             style="fill:#464b52" />
          <path
             id="path3160"
             d="m 215.043,25.991 c 0.015,0.034 -0.008,0.067 -0.04,0.08 l 0,0 c -0.034,0.011 -0.068,-0.01 -0.076,-0.041 l -0.199,-0.591 c -0.011,-0.035 0.007,-0.07 0.039,-0.082 l 0,0 c 0.03,-0.009 0.066,0.011 0.075,0.04 l 0.201,0.594 z"
             inkscape:connector-curvature="0"
             style="fill:#464b52" />
        </g>
        <g
           id="g3162">
          <path
             id="path3164"
             d="m 219.155,34.818 c -0.024,0.026 -0.063,0.03 -0.092,0.005 l 0,0 c -0.022,-0.024 -0.019,-0.064 -0.002,-0.088 l 0.434,-0.45 c 0.026,-0.023 0.069,-0.023 0.088,0.001 l 0,0 c 0.03,0.022 0.029,0.062 0.002,0.085 l -0.43,0.447 z"
             inkscape:connector-curvature="0"
             style="fill:#464b52" />
          <path
             id="path3166"
             d="m 219.448,35.151 c -0.024,0.025 -0.063,0.022 -0.089,-0.008 l 0,0 c -0.019,-0.026 -0.009,-0.063 0.011,-0.086 l 0.487,-0.39 c 0.027,-0.021 0.072,-0.014 0.086,0.011 l 0,0 c 0.026,0.026 0.02,0.065 -0.01,0.085 l -0.485,0.388 z"
             inkscape:connector-curvature="0"
             style="fill:#464b52" />
          <path
             id="path3168"
             d="m 219.656,35.467 c -0.028,0.02 -0.066,0.011 -0.086,-0.018 l 0,0 c -0.016,-0.031 -0.004,-0.068 0.02,-0.087 l 0.538,-0.318 c 0.032,-0.019 0.075,-0.006 0.083,0.024 l 0,0 c 0.024,0.029 0.014,0.066 -0.017,0.085 l -0.538,0.314 z"
             inkscape:connector-curvature="0"
             style="fill:#464b52" />
          <path
             id="path3170"
             d="m 219.799,35.775 c -0.03,0.014 -0.069,0 -0.084,-0.033 l 0,0 c -0.01,-0.032 0.009,-0.068 0.035,-0.083 l 0.576,-0.232 c 0.038,-0.012 0.075,0.005 0.083,0.035 l 0,0 c 0.017,0.034 0,0.07 -0.032,0.081 l -0.578,0.232 z"
             inkscape:connector-curvature="0"
             style="fill:#464b52" />
          <path
             id="path3172"
             d="m 219.883,36.071 c -0.035,0.008 -0.067,-0.01 -0.08,-0.046 l 0,0 c -0.004,-0.032 0.021,-0.063 0.049,-0.075 l 0.608,-0.14 c 0.035,-0.005 0.071,0.018 0.074,0.051 l 0,0 c 0.011,0.035 -0.01,0.065 -0.048,0.075 l -0.603,0.135 z"
             inkscape:connector-curvature="0"
             style="fill:#464b52" />
          <path
             id="path3174"
             d="m 219.911,36.355 c -0.034,0.003 -0.063,-0.021 -0.066,-0.058 l 0,0 c -0.003,-0.034 0.026,-0.061 0.058,-0.064 l 0.623,-0.039 c 0.036,-0.002 0.065,0.028 0.064,0.061 l 0,0 c 0.006,0.036 -0.021,0.062 -0.058,0.064 l -0.621,0.036 z"
             inkscape:connector-curvature="0"
             style="fill:#464b52" />
          <path
             id="path3176"
             d="m 219.895,36.625 c -0.034,-0.003 -0.059,-0.033 -0.057,-0.069 l 0,0 c 0.004,-0.032 0.038,-0.053 0.07,-0.053 l 0.62,0.064 c 0.034,0.003 0.06,0.038 0.053,0.07 l 0,0 c -0.002,0.034 -0.032,0.059 -0.065,0.054 l -0.621,-0.066 z"
             inkscape:connector-curvature="0"
             style="fill:#464b52" />
          <path
             id="path3178"
             d="m 219.838,36.878 c -0.036,-0.009 -0.055,-0.043 -0.047,-0.079 l 0,0 c 0.009,-0.031 0.047,-0.045 0.077,-0.042 l 0.603,0.165 c 0.034,0.011 0.055,0.047 0.041,0.079 l 0,0 c -0.006,0.034 -0.041,0.052 -0.073,0.042 l -0.601,-0.165 z"
             inkscape:connector-curvature="0"
             style="fill:#464b52" />
          <path
             id="path3180"
             d="M 219.743,37.111 C 219.71,37.1 219.695,37.064 219.71,37.03 l 0,0 c 0.014,-0.03 0.052,-0.041 0.081,-0.03 l 0.57,0.254 c 0.032,0.019 0.047,0.058 0.029,0.086 l 0,0 c -0.013,0.032 -0.052,0.043 -0.083,0.028 l -0.564,-0.257 z"
             inkscape:connector-curvature="0"
             style="fill:#464b52" />
          <path
             id="path3182"
             d="m 219.613,37.327 c -0.03,-0.019 -0.038,-0.054 -0.021,-0.086 l 0,0 c 0.02,-0.029 0.061,-0.033 0.087,-0.019 l 0.522,0.341 c 0.029,0.021 0.037,0.062 0.017,0.088 l 0,0 c -0.017,0.031 -0.059,0.037 -0.084,0.017 l -0.521,-0.341 z"
             inkscape:connector-curvature="0"
             style="fill:#464b52" />
          <path
             id="path3184"
             d="m 219.455,37.516 c -0.03,-0.021 -0.03,-0.058 -0.008,-0.087 l 0,0 c 0.025,-0.025 0.064,-0.025 0.09,-0.004 L 220,37.839 c 0.027,0.025 0.029,0.068 0.005,0.089 l 0,0 c -0.023,0.029 -0.062,0.029 -0.087,0.006 l -0.463,-0.418 z"
             inkscape:connector-curvature="0"
             style="fill:#464b52" />
          <path
             id="path3186"
             d="m 219.27,37.679 c -0.022,-0.026 -0.019,-0.063 0.008,-0.087 l 0,0 c 0.029,-0.022 0.067,-0.015 0.089,0.01 l 0.396,0.479 c 0.025,0.029 0.019,0.07 -0.01,0.089 l 0,0 c -0.026,0.023 -0.063,0.017 -0.084,-0.009 l -0.399,-0.482 z"
             inkscape:connector-curvature="0"
             style="fill:#464b52" />
          <path
             id="path3188"
             d="m 219.065,37.813 c -0.019,-0.033 -0.01,-0.068 0.021,-0.088 l 0,0 c 0.032,-0.018 0.069,-0.005 0.087,0.023 l 0.318,0.535 c 0.019,0.031 0.008,0.071 -0.021,0.085 l 0,0 c -0.033,0.02 -0.069,0.008 -0.086,-0.021 l -0.319,-0.534 z"
             inkscape:connector-curvature="0"
             style="fill:#464b52" />
          <path
             id="path3190"
             d="m 218.847,37.909 c -0.016,-0.031 0,-0.066 0.032,-0.081 l 0,0 c 0.034,-0.015 0.068,0.005 0.083,0.036 l 0.228,0.577 c 0.016,0.033 0,0.071 -0.034,0.082 l 0,0 c -0.03,0.015 -0.066,-0.004 -0.079,-0.032 l -0.23,-0.582 z"
             inkscape:connector-curvature="0"
             style="fill:#464b52" />
          <path
             id="path3192"
             d="m 218.613,37.972 c -0.01,-0.037 0.013,-0.068 0.047,-0.076 l 0,0 c 0.034,-0.007 0.064,0.014 0.071,0.047 l 0.137,0.607 c 0.008,0.037 -0.017,0.069 -0.048,0.077 l 0,0 c -0.035,0.007 -0.064,-0.016 -0.074,-0.047 l -0.133,-0.608 z"
             inkscape:connector-curvature="0"
             style="fill:#464b52" />
          <path
             id="path3194"
             d="m 218.372,37.991 c -0.003,-0.035 0.023,-0.063 0.061,-0.066 l 0,0 c 0.034,-10e-4 0.061,0.026 0.062,0.061 l 0.03,0.62 c 0.003,0.039 -0.024,0.068 -0.059,0.068 l 0,0 c -0.034,0.002 -0.062,-0.028 -0.062,-0.058 l -0.032,-0.625 z"
             inkscape:connector-curvature="0"
             style="fill:#464b52" />
          <path
             id="path3196"
             d="m 218.13,37.972 c 0.003,-0.038 0.033,-0.058 0.068,-0.055 l 0,0 c 0.038,0.004 0.057,0.036 0.052,0.071 l -0.076,0.614 c -0.007,0.038 -0.038,0.063 -0.07,0.058 l 0,0 c -0.034,-0.003 -0.059,-0.037 -0.055,-0.068 l 0.081,-0.62 z"
             inkscape:connector-curvature="0"
             style="fill:#464b52" />
          <path
             id="path3198"
             d="m 217.882,37.905 c 0.011,-0.034 0.043,-0.052 0.078,-0.041 l 0,0 c 0.034,0.01 0.049,0.044 0.039,0.079 l -0.184,0.591 c -0.009,0.04 -0.047,0.056 -0.078,0.045 l 0,0 c -0.034,-0.011 -0.05,-0.047 -0.042,-0.077 l 0.187,-0.597 z"
             inkscape:connector-curvature="0"
             style="fill:#464b52" />
          <path
             id="path3200"
             d="m 217.634,37.792 c 0.015,-0.035 0.054,-0.043 0.085,-0.028 l 0,0 c 0.033,0.017 0.041,0.054 0.022,0.086 l -0.281,0.552 c -0.018,0.032 -0.055,0.044 -0.086,0.029 l 0,0 c -0.03,-0.015 -0.04,-0.054 -0.027,-0.083 l 0.287,-0.556 z"
             inkscape:connector-curvature="0"
             style="fill:#464b52" />
        </g>
        <g
           id="g3202">
          <path
             id="path3204"
             d="m 213.059,38.359 c -0.085,0 -0.167,-0.044 -0.211,-0.119 l -0.341,-0.555 c -0.021,-0.032 -0.032,-0.069 -0.035,-0.108 l -0.126,-1.376 c -0.007,-0.094 0.037,-0.186 0.118,-0.235 l 1.147,-0.696 c 0.069,-0.042 0.153,-0.049 0.229,-0.015 l 1.236,0.542 c 0.062,0.025 0.108,0.076 0.132,0.14 l 0.451,1.175 c 0.023,0.061 0.02,0.129 -0.007,0.188 l -0.265,0.59 c -0.03,0.07 -0.092,0.122 -0.17,0.14 l -0.867,0.201 -1.269,0.129 c -0.008,-10e-4 -0.014,-10e-4 -0.022,-10e-4 z m -0.098,-0.884 0.227,0.375 1.086,-0.107 0.714,-0.168 0.172,-0.382 -0.377,-0.984 -1.024,-0.448 -0.904,0.548 0.106,1.166 z"
             inkscape:connector-curvature="0"
             style="fill:#464b52" />
        </g>
        <path
           id="path3206"
           d="m 213.232,35.786 -0.576,-5.613 c 0,0 1.464,-0.187 1.88,-0.083 v 5.777"
           inkscape:connector-curvature="0"
           style="fill:#464b52" />
        <g
           id="g3208">
          <path
             id="path3210"
             d="m 217.088,38.968 c -0.542,0 -1.002,-0.297 -1.067,-0.341 l -0.178,-0.122 -0.132,-0.843 -0.182,-0.026 0.153,-0.979 0.894,0.138 0.172,1.1 c 0.154,0.064 0.351,0.114 0.484,0.05 0.142,-0.064 0.255,-0.285 0.322,-0.616 l -0.527,-0.488 -0.057,-0.686 c -0.009,-0.125 -0.058,-1.172 0.606,-1.844 0.246,-0.252 0.698,-0.546 1.438,-0.509 l 0.175,0.009 0.131,0.117 c 0.01,0.011 1.279,1.108 2.66,1.032 1.393,-0.071 2.509,-0.373 2.698,-0.426 l 5.168,-2.337 0.412,0.901 -5.264,2.375 c -0.053,0.017 -1.315,0.39 -2.966,0.477 -1.475,0.073 -2.784,-0.82 -3.215,-1.155 -0.228,0.012 -0.404,0.082 -0.533,0.213 -0.301,0.306 -0.334,0.892 -0.323,1.075 l 0.025,0.295 0.622,0.576 -0.03,0.25 c -0.1,0.853 -0.416,1.405 -0.932,1.646 -0.184,0.084 -0.372,0.118 -0.554,0.118 z"
             inkscape:connector-curvature="0"
             style="fill:#464b52" />
        </g>
        <path
           id="path3212"
           d="m 251.476,18.037 -2.188,1.815 c -2.27,1.817 -3.446,-0.205 -3.446,-0.205 l -1.611,-0.495 -9.8,10.07 c 0,0 5.901,-0.352 7.819,-2.642 0,0 1.299,-1.238 1.919,-4.21 0,0 2.394,-0.248 2.891,-0.248 4.416,0.001 5.035,-1.857 5.035,-1.857 l -0.619,-2.228 z"
           inkscape:connector-curvature="0"
           style="fill:#464b52" />
        <g
           id="g3214">
          <path
             id="path3216"
             d="m 226.761,39.518 c -1.261,0 -2.863,-0.17 -3.852,-0.913 -1.766,-1.325 -2.703,-3.478 -2.743,-3.569 l 0.456,-0.195 c 0.01,0.021 0.926,2.122 2.584,3.366 1.632,1.223 5.349,0.701 5.388,0.695 l 0.071,0.491 c -0.072,0.012 -0.876,0.125 -1.904,0.125 z"
             inkscape:connector-curvature="0"
             style="fill:#464b52" />
        </g>
        <g
           id="g3218">
          <path
             id="path3220"
             d="m 227.446,39.491 c 0,0 0.875,-1.641 2.235,-0.219 1.361,1.425 -2.235,0.219 -2.235,0.219 z"
             inkscape:connector-curvature="0"
             style="fill:#464b52" />
        </g>
        <path
           id="path3222"
           d="m 228.28,25.755 c 0,0 1.332,0.596 1.649,1.691"
           inkscape:connector-curvature="0"
           style="fill:#464b52" />
        <path
           id="path3224"
           d="M 224.605,36.609"
           inkscape:connector-curvature="0"
           style="fill:#464b52" />
        <g
           id="g3226">
          <path
             id="path3228"
             d="m 253.632,10.629 -0.15,-0.719 -0.609,0.409 c -2.158,1.448 -4.798,3.036 -5.3,3.074 -0.875,0 -3.217,0.181 -3.318,0.188 l -0.07,0.011 c -1.595,0.362 -2.477,0.953 -2.69,1.806 -0.224,0.874 0.374,1.642 0.692,1.977 -0.09,1.975 -1.42,3.659 -1.838,4.142 -2.011,0.162 -3.107,1.615 -3.539,2.349 -3.867,-1.242 -7.897,0.943 -8.668,1.395 h -3.7 l -0.064,0.004 c -0.174,0.022 -4.264,0.563 -6.363,1.708 -1.461,0.797 -1.846,2.264 -1.926,3.272 -0.706,-0.453 -1.773,-0.961 -2.865,-0.829 -0.89,0.106 -1.635,0.602 -2.218,1.473 -0.317,0.478 -0.77,1.974 -0.432,3.436 0.248,1.072 0.882,1.934 1.833,2.488 l 0.498,-0.854 c -0.719,-0.421 -1.179,-1.047 -1.363,-1.857 -0.271,-1.161 0.097,-2.376 0.29,-2.665 0.417,-0.627 0.908,-0.965 1.509,-1.039 1.402,-0.17 2.905,1.199 2.922,1.211 l 1.018,0.933 -0.19,-1.366 c -0.002,-0.024 -0.313,-2.402 1.396,-3.334 1.848,-1.009 5.61,-1.541 5.989,-1.592 h 3.945 l 0.12,-0.076 c 0.047,-0.027 4.471,-2.735 8.332,-1.237 l 0.444,0.172 0.189,-0.438 c 0.039,-0.087 0.931,-2.106 3.092,-2.177 l 0.197,-0.007 0.137,-0.144 c 0.094,-0.094 2.248,-2.342 2.248,-5.173 v -0.225 l -0.171,-0.148 c -0.145,-0.127 -0.67,-0.701 -0.556,-1.156 0.063,-0.252 0.397,-0.725 1.915,-1.075 0.308,-0.023 2.428,-0.182 3.205,-0.182 0.64,0 2.506,-1.089 4.074,-2.082 -0.503,0.543 -1.259,1.244 -2.39,2.117 -0.135,0.105 -0.22,0.168 -0.248,0.189 l -0.245,0.186 0.074,0.57 0.265,0.109 c 0.193,0.08 0.312,0.052 0.503,-0.079 0.073,-0.048 0.156,-0.113 0.257,-0.192 3.78,-2.915 3.839,-4.237 3.769,-4.573 z"
             inkscape:connector-curvature="0"
             style="fill:#464b52" />
        </g>
        <g
           id="g3230">
          <path
             id="path3232"
             d="m 249.312,14.451 -1.718,0.29 c -0.162,0.028 -0.333,0.119 -0.613,0.272 -0.402,0.215 -1.013,0.544 -1.497,0.59 l -0.538,0.194 -2.646,6.352 -3.145,3.666 c -0.251,0.206 -2.256,1.808 -5.691,3.152 l -1.782,1.205 0.559,0.817 1.636,-1.119 c 3.802,-1.496 5.867,-3.252 5.951,-3.328 l 3.273,-3.807 2.599,-6.159 c 0.644,-0.095 1.303,-0.45 1.749,-0.69 0.131,-0.07 0.292,-0.157 0.312,-0.168 l 1.719,-0.291 -0.168,-0.976 z"
             inkscape:connector-curvature="0"
             style="fill:#464b52" />
        </g>
        <path
           id="path3234"
           d="m 238.267,35.991 c 0,3.307 -2.312,1.941 -2.312,1.941 l -1.238,-1.323 c 0,0 -4.323,-3.458 -5.341,-3.555 -2.171,-0.199 -5.158,-2.27 -7.04,-1.479 -0.162,0.068 -0.317,0.128 -0.47,0.182 -3.69,1.337 -4.073,-1.254 -4.073,-1.254 0,0 -0.329,-2.642 4.708,-2.726 5.034,-0.083 9.903,2.807 9.903,2.807 l 3.057,4.788 c 0,0 1.158,0.124 1.485,1.033 0,0 1.321,-1.157 1.321,-0.414 z"
           inkscape:connector-curvature="0"
           style="fill:#464b52" />
        <path
           id="path3236"
           d="m 253.281,10.972 c 0,0 -4.706,3.159 -5.571,3.159 -0.869,0 -3.283,0.186 -3.283,0.186 -4.087,0.929 -1.61,3.095 -1.61,3.095 0,2.663 -2.105,4.831 -2.105,4.831 -2.518,0.081 -3.528,2.476 -3.528,2.476 -4.147,-1.611 -8.771,1.279 -8.771,1.279 h -3.838 c 0,0 -4.149,0.537 -6.192,1.65 -2.043,1.115 -1.651,3.839 -1.651,3.839 0,0 -3.236,-2.996 -5.177,-0.08 -0.405,0.602 -1.19,3.619 1.07,5.106 l -0.028,-0.335 1.144,-0.697 1.237,0.542 0.45,1.178 -0.045,0.098 0.358,0.091 0.536,0.084 -0.04,1.236 c 0,0 1.734,0.786 1.98,-1.32 l -0.576,-0.536 -0.043,-0.495 c 0,0 -0.124,-1.899 1.528,-1.817 0,0 1.405,1.239 3.014,1.157 1.608,-0.084 2.847,-0.453 2.847,-0.453 l 5.202,-2.355 2.268,-2.269 1.323,-0.95 c 3.796,-1.485 5.861,-3.261 5.861,-3.261 l 3.218,-3.756 2.602,-6.233 0.204,-0.081 c 0.87,-0.084 1.901,-0.826 2.147,-0.868 0.247,-0.042 1.705,-0.289 1.716,-0.292 0.056,-0.042 0.112,-0.084 0.165,-0.127 3.828,-2.953 3.588,-4.082 3.588,-4.082 z"
           inkscape:connector-curvature="0"
           style="fill:#464b52" />
      </g>
      <g
         transform="matrix(3.0145052,0,0,3.0145052,-1207.4061,-90.43103)"
         id="g3238">
        <path
           id="path3240"
           d="m 246.188,30.178 c -1.308,0.988 -2.571,1.966 -4.066,2.584 -0.865,9.848 -9.152,17.6 -19.22,17.6 -10.643,0 -19.301,-8.659 -19.301,-19.301 0,-10.642 8.658,-19.3 19.301,-19.3 4.729,0 9.062,1.716 12.421,4.552 1.207,-0.708 2.16,-1.661 3.008,-2.692 -4.113,-3.646 -9.514,-5.87 -15.429,-5.87 -12.854,0 -23.312,10.457 -23.312,23.311 0,12.854 10.457,23.311 23.312,23.311 12.853,0 23.309,-10.458 23.309,-23.311 -0.001,-0.296 -0.011,-0.59 -0.023,-0.884 z"
           inkscape:connector-curvature="0"
           style="fill:#464b52" />
      </g>
      <path
         id="path3362"
         d="m -1170.6894,71.598624 h -0.7838 c -2.3724,-0.198957 -4.3529,-2.173458 -4.3529,-4.744831 V -62.037406 c 0,-2.568358 2.1734,-4.741816 4.7448,-4.741816 h 0.5908 25.3038 c 38.1606,0 69.1949,31.230274 69.1949,69.384866 0,38.154592 -31.0343,68.989966 -69.1949,68.989966 h -25.5027 z m 25.5027,-9.688619 c 32.8189,0 59.5063,-26.491472 59.5063,-59.3013465 0,-33.0148605 -26.6904,-59.5033185 -59.5063,-59.6992605 h -20.9508 V 61.913019 h 20.9508 z"
         inkscape:connector-curvature="0"
         style="fill:#464b52" />
      <path
         id="path3364"
         d="m -1042.1841,-62.037406 c 0,-2.568358 2.1735,-4.741816 4.7448,-4.741816 2.7643,0 4.9438,2.173458 4.9438,4.741816 V 66.850779 c 0,2.571373 -2.1795,4.744831 -4.9438,4.744831 -2.5713,0 -4.7448,-2.173458 -4.7448,-4.744831 V -62.037406 z"
         inkscape:connector-curvature="0"
         style="fill:#464b52" />
      <path
         id="path3366"
         d="m -937.80383,68.828294 c -0.19895,0 -0.19895,-0.198957 -0.19895,-0.397914 l -0.18992,-0.189914 -53.57981,-127.510556 c -0.99479,-2.369401 0.1869,-5.335674 2.56534,-6.327446 2.37242,-1.181686 5.33567,0 6.32443,2.37543 l 49.42281,117.818921 49.61273,-117.818921 c 0.79583,-2.37543 3.75909,-3.557116 6.12849,-2.37543 2.37242,0.991772 3.56013,3.958045 2.57137,6.327446 l -53.56474,126.518783 c -0.19896,1.778559 -1.18771,3.358159 -2.76732,3.952017 h -0.19895 c -0.59085,0.198957 -1.18169,0.397914 -1.77856,0.397914 -0.59386,0 -1.38969,0 -1.77554,-0.198957 -0.19896,0 -0.19896,-0.198957 -0.19896,-0.198957 -1.19375,-0.397915 -1.98355,-1.184701 -2.37242,-2.372416 z"
         inkscape:connector-curvature="0"
         style="fill:#464b52" />
      <path
         id="path3368"
         d="m -840.93572,-62.037406 c 0,-2.568358 2.16743,-4.741816 4.74182,-4.741816 h 0.39791 70.77154 c 2.7643,0 4.7388,2.173458 4.7388,4.741816 0,2.767316 -1.97751,4.943789 -4.7388,4.943789 h -66.22566 v 54.752458 h 57.91467 c 2.57137,0 4.75086,2.17948721 4.75086,4.946803 0,2.5683584 -2.17949,4.7448312 -4.75086,4.7448312 h -57.91467 V 61.910005 h 66.22566 c 2.7643,0 4.7388,2.173458 4.7388,4.943788 0,2.571373 -1.97751,4.744831 -4.7388,4.744831 h -70.57258 -0.59687 -0.39189 c -2.37241,-0.198957 -4.34691,-2.173458 -4.34691,-4.744831 V -62.037406 z"
         inkscape:connector-curvature="0"
         style="fill:#464b52" />
      <path
         id="path3370"
         d="m -723.71065,-62.037406 c 0,-2.568358 2.17345,-4.741816 4.7388,-4.741816 h 0.59687 30.24152 c 18.97932,0 34.40153,15.416179 34.40153,34.591447 0,10.87332 -5.33869,20.558925 -13.24875,26.8863718 15.61815,5.33868876 27.08231,19.9710972 27.08231,37.3617772 0,21.942584 -17.79763,39.53825 -39.53523,39.53825 h -38.94439 -0.59688 -0.18991 c -2.57137,0 -4.54587,-2.173458 -4.54587,-4.744831 V -62.037406 z m 35.57719,54.3635873 c 13.64365,0 24.71291,-11.0692633 24.71291,-24.5139563 0,-13.836579 -11.06926,-24.905842 -24.71291,-24.905842 h -25.89159 v 49.4197983 h 25.89159 z m 8.70287,69.5838237 c 16.40193,0 29.65068,-13.242722 29.85265,-29.849631 -0.20197,-16.407952 -13.45072,-29.8496302 -29.85265,-29.8496302 h -34.59446 V 61.910005 h 34.59446 z"
         inkscape:connector-curvature="0"
         style="fill:#464b52" />
      <path
         id="path3372"
         d="m -246.47831,7.2087934 31.35086,56.9892206 c 1.09426,2.327198 0.0452,5.215094 -2.46285,6.39678 -2.3272,1.085222 -5.2151,0.03617 -6.31539,-2.284995 L -255.88055,9.9791237"
         inkscape:connector-curvature="0"
         style="fill:#464b52" />
      <path
         id="path3374"
         d="m -347.34064,35.620505 h -63.05139 l -12.25396,32.622975 c -0.79884,1.974501 -2.5774,3.159202 -4.5519,3.159202 -0.39792,0 -1.1847,-0.198958 -1.77856,-0.198958 -2.37242,-0.985743 -3.75607,-3.955031 -2.76732,-6.327446 l 48.03916,-128.291312 c 0.7898,-1.778558 2.7643,-2.966274 4.7388,-2.966274 2.17949,0 4.15097,1.187716 4.74483,2.966274 l 48.03614,128.291312 c 0.98574,2.372415 -0.19594,5.341703 -2.56534,6.327446 -0.79583,0 -1.19375,0.198958 -1.78157,0.198958 -1.78158,0 -3.75909,-1.187715 -4.54889,-3.159202 l -12.26,-32.622975 z M -406.83793,25.9349 h 55.94319 l -27.87513,-74.32564 -28.06806,74.32564 z"
         inkscape:connector-curvature="0"
         style="fill:#464b52" />
      <path
         id="path3376"
         d="m -254.82547,11.896349 h -33.59968 V 66.65785 c 0,2.565344 -2.17044,4.744832 -4.94378,4.744832 -2.56535,0 -4.74484,-2.179488 -4.74484,-4.744832 V -62.230334 c 0,-2.37543 1.98053,-4.539845 4.35295,-4.741817 h 0.39189 0.59385 35.42948 c 21.74363,0 39.33628,17.592653 39.33628,39.535236 0,15.817109 -11.04515,30.2686469 -24.48683,36.5930788 M -257.3456,-57.283531 h -31.08256 V 2.4157302 h 30.08778 1.78157 c 16.01606,-0.3979147 29.06284,-13.6376212 29.06284,-29.8496302 0,-16.609924 -13.44168,-29.849631 -29.84963,-29.849631 z"
         inkscape:connector-curvature="0"
         style="fill:#464b52" />
      <path
         id="path3378"
         d="m -176.00219,71.405696 h -0.79884 c -2.3694,-0.198957 -4.34993,-2.179487 -4.34993,-4.744831 V -62.230334 c 0,-2.568358 2.17345,-4.741817 4.74483,-4.741817 h 0.59385 25.30075 c 38.15157,0 69.194949,31.233289 69.194949,69.3848667 0,38.1515773 -31.043379,68.9899663 -69.194949,68.9899663 h -25.49066 z m 25.49367,-9.685605 c 32.81289,0 59.512363,-26.494486 59.512363,-59.3073753 0,-33.0148607 -26.699473,-59.5033177 -59.512363,-59.6992607 h -20.9478 V 61.720091 h 20.9478 z"
         inkscape:connector-curvature="0"
         style="fill:#464b52" />
    </g>
  </g>
</svg>
